<?xml version="1.0" encoding="UTF-8"?>
<svg width="111px" height="28px" viewBox="0 0 111 28" version="1.1" xmlns="http://www.w3.org/2000/svg" xmlns:xlink="http://www.w3.org/1999/xlink">
    <!-- Generator: Sketch 56.3 (81716) - https://sketch.com -->
    <title>logo.svg</title>
    <desc>Created with Sketch.</desc>
    <g id="logo.svg" stroke="none" stroke-width="1" fill="none" fill-rule="evenodd">
        <g id="logo"></g>
        <path d="M0,2.1 L33,2.1 L33,24.1 L0,24.1 L0,2.1 Z M32,23.1 L32,3.1 L16.85,3.1 L16.85,13.4 L1,13.4 L1,23.1 L32,23.1 Z M8.25,5.55 L9.05,5.55 L8.65,3.95 L8.25,5.55 Z M6.65,4.55 L7.1,6.1 C7.2,6 7.3,5.9 7.45,5.85 C7.55,5.8 7.65,5.75 7.8,5.6 L6.65,4.55 Z M10.2,6.1 L10.55,4.55 L9.4,5.6 C9.6,5.75 9.7,5.8 9.85,5.85 C9.95,5.9 10.05,6 10.2,6.1 Z M8.65,9.9 C9.75,9.9 10.6,9.05 10.6,7.95 C10.6,6.8 9.75,5.9 8.65,5.9 C7.55,5.9 6.55,6.8 6.55,7.95 C6.55,9.05 7.55,9.9 8.65,9.9 Z M6.8,6.4 L5.2,5.95 L6.35,7.1 C6.4,6.95 6.45,6.85 6.55,6.75 C6.65,6.6 6.75,6.5 6.8,6.4 Z M12,5.95 L10.45,6.4 C10.5,6.5 10.6,6.6 10.65,6.75 C10.7,6.85 10.8,6.95 10.85,7.1 L12,5.95 Z M6.25,7.5 L4.7,7.95 L6.25,8.3 C6.2,8.2 6.2,8.1 6.2,7.95 C6.2,7.8 6.2,7.65 6.25,7.5 Z M10.95,8.3 L12.6,7.95 L10.95,7.5 C11,7.65 11,7.8 11,7.95 C11,8.1 11,8.2 10.95,8.3 Z M6.35,8.75 L5.2,9.85 L6.8,9.5 L6.55,9.1 C6.45,9 6.4,8.85 6.35,8.75 Z M10.45,9.5 L12,9.85 L10.85,8.75 L10.65,9.1 C10.6,9.25 10.5,9.4 10.45,9.5 Z M7.1,9.7 L6.65,11.3 L7.8,10.2 C7.65,10.15 7.55,10.05 7.45,9.95 C7.3,9.9 7.2,9.8 7.1,9.7 Z M9.85,9.95 C9.7,10.05 9.6,10.15 9.4,10.2 L10.55,11.3 L10.2,9.7 C10.05,9.8 9.95,9.9 9.85,9.95 Z M9.05,10.3 C8.9,10.3 8.8,10.35 8.65,10.35 C8.5,10.35 8.35,10.3 8.25,10.3 L8.65,11.9 L9.05,10.3 Z" id="ꀁ" fill="#1B9431" fill-rule="nonzero"></path>
        <path d="M58.016,13.416 L58.016,23.424 L56.264,23.424 L56.264,22.224 L43.736,22.224 L43.736,23.424 L41.984,23.424 L41.984,13.416 L58.016,13.416 Z M43.736,20.568 L56.264,20.568 L56.264,15.072 L43.736,15.072 L43.736,20.568 Z M40.28,10.944 L39.944,9.312 C42.056,8.592 44.672,5.928 47.792,1.344 L49.568,1.944 C47.408,5.016 45.224,7.464 43.064,9.24 C47.672,9.048 52.04,8.736 56.168,8.352 C55.256,7.056 54.32,5.832 53.36,4.728 L54.92,3.984 C56.984,6.384 58.904,9.048 60.68,11.952 L59,12.768 C58.4,11.76 57.8,10.824 57.224,9.912 C52.16,10.368 46.52,10.704 40.28,10.944 Z M71.792,17.16 L71.576,18.624 L83.768,18.624 C83.768,20.688 83.576,21.984 83.216,22.512 C82.832,23.088 82.016,23.4 80.72,23.424 C79.664,23.424 78.632,23.4 77.624,23.352 L77.264,21.984 C78.416,22.032 79.472,22.056 80.456,22.056 C81.224,22.056 81.704,21.888 81.92,21.576 C82.064,21.312 82.136,20.784 82.16,19.992 L69.848,19.992 L70.424,15.864 L81.44,15.864 L81.44,14.328 L70.208,14.328 L70.208,13.056 L82.976,13.056 L82.976,17.16 L71.792,17.16 Z M64.592,1.728 C65.984,2.88 67.136,4.008 68.096,5.136 L66.968,6.288 C66.128,5.184 64.952,4.032 63.464,2.808 L64.592,1.728 Z M64.304,7.416 C65.768,8.592 66.992,9.768 68,10.944 L66.872,12.072 C65.984,10.944 64.76,9.744 63.176,8.496 L64.304,7.416 Z M66.872,13.968 L68.312,14.568 C67.256,17.592 66.104,20.424 64.832,23.112 L63.248,22.44 C64.64,19.68 65.864,16.848 66.872,13.968 Z M73.688,2.856 L75.704,2.856 C75.56,2.376 75.392,1.92 75.224,1.536 L76.688,1.296 C76.856,1.776 77,2.28 77.144,2.856 L79.232,2.856 L79.232,4.008 L73.688,4.008 L73.688,2.856 Z M74.36,4.92 L78.584,4.92 L78.584,5.928 L74.36,5.928 L74.36,4.92 Z M74.36,6.768 L78.56,6.768 L78.56,7.752 L74.36,7.752 L74.36,6.768 Z M74.216,8.64 L78.728,8.64 L78.728,12.12 L74.216,12.12 L74.216,8.64 Z M77.576,11.136 L77.576,9.552 L75.368,9.552 L75.368,11.136 L77.576,11.136 Z M68.864,9.432 L69.824,9.672 C69.728,10.656 69.56,11.616 69.296,12.552 L68.24,12.168 C68.528,11.304 68.744,10.392 68.864,9.432 Z M71.456,9.528 C71.624,10.2 71.744,11.136 71.792,12.288 L70.712,12.432 C70.688,11.232 70.616,10.296 70.52,9.624 L71.456,9.528 Z M73.136,9.36 C73.424,10.224 73.664,10.992 73.832,11.712 L72.848,12.072 C72.68,11.232 72.488,10.416 72.248,9.624 L73.136,9.36 Z M72.848,5.808 C73.232,6.672 73.568,7.704 73.856,8.856 L72.8,9.12 L72.608,8.352 C71.408,8.592 70.088,8.808 68.6,9 L68.384,7.968 C68.888,7.8 69.656,6.984 70.664,5.496 L68.672,5.712 L68.432,4.776 C69.2,4.008 69.872,2.88 70.4,1.44 L71.576,1.776 C71.048,2.976 70.448,3.936 69.776,4.656 C70.28,4.608 70.808,4.536 71.336,4.488 C71.6,4.056 71.888,3.6 72.176,3.12 L73.328,3.528 C72.032,5.568 71.024,6.984 70.28,7.752 C71,7.608 71.672,7.488 72.296,7.368 C72.152,6.936 72.008,6.528 71.84,6.12 L72.848,5.808 Z M83.744,5.592 C84.128,6.504 84.488,7.56 84.824,8.76 L83.744,9 C83.696,8.76 83.624,8.544 83.576,8.328 C82.376,8.52 81.008,8.712 79.472,8.904 L79.232,7.872 C79.76,7.704 80.552,6.912 81.608,5.496 C81.008,5.544 80.36,5.616 79.664,5.688 L79.424,4.752 C80.192,3.984 80.864,2.904 81.392,1.488 L82.568,1.824 C82.04,2.976 81.44,3.912 80.768,4.632 C81.296,4.584 81.824,4.512 82.352,4.464 C82.64,4.032 82.928,3.6 83.24,3.144 L84.392,3.552 C83.048,5.544 81.968,6.936 81.152,7.704 C81.92,7.584 82.64,7.464 83.264,7.344 C83.096,6.84 82.928,6.36 82.736,5.904 L83.744,5.592 Z M79.856,9.384 L80.816,9.624 C80.72,10.608 80.576,11.568 80.36,12.48 L79.304,12.096 C79.568,11.256 79.76,10.344 79.856,9.384 Z M82.424,9.456 C82.616,10.128 82.76,11.064 82.832,12.216 L81.728,12.36 C81.68,11.16 81.608,10.224 81.488,9.552 L82.424,9.456 Z M84.08,9.192 C84.44,10.056 84.704,10.872 84.896,11.592 L83.936,11.928 C83.72,11.088 83.48,10.272 83.192,9.456 L84.08,9.192 Z M108.416,2.376 L108.416,3.96 L98.864,3.96 L98.864,8.424 L107.936,8.424 L107.936,9.912 C107.384,13.152 106.352,15.888 104.816,18.144 C105.968,19.584 107.408,20.928 109.112,22.128 L107.984,23.448 C106.352,22.152 104.96,20.808 103.832,19.416 C102.44,21.048 100.784,22.392 98.816,23.424 L97.976,21.888 C99.92,20.856 101.528,19.56 102.8,18.024 C101.144,15.552 100.16,12.888 99.824,10.056 L98.864,10.056 L98.864,12.024 C98.792,16.728 97.976,20.496 96.44,23.328 L95.144,22.176 C96.488,19.728 97.208,16.344 97.28,12.024 L97.28,2.376 L108.416,2.376 Z M101.36,10.056 C101.672,12.48 102.464,14.688 103.76,16.704 C104.984,14.784 105.824,12.576 106.256,10.056 L101.36,10.056 Z M90.32,14.76 C90.128,18.408 89.432,21.168 88.28,23.016 L87.008,21.864 C88.112,19.968 88.664,16.92 88.688,12.744 L88.688,2.088 L90.392,2.088 L90.392,8.064 L93.176,8.064 L93.176,1.632 L94.856,1.632 L94.856,9.696 L90.392,9.696 L90.392,13.128 L94.928,13.128 L94.928,23.304 L93.248,23.304 L93.248,14.76 L90.32,14.76 Z" id="台灣版" fill="#808080" fill-rule="nonzero"></path>
    </g>
</svg>